<?xml version="1.0" encoding="utf-8"?>
<!-- Generator: Adobe Illustrator 23.0.1, SVG Export Plug-In . SVG Version: 6.00 Build 0)  -->
<svg version="1.1" xmlns="http://www.w3.org/2000/svg" xmlns:xlink="http://www.w3.org/1999/xlink" x="0px" y="0px"
	 viewBox="0 0 841.89 566.93" style="enable-background:new 0 0 841.89 566.93;" xml:space="preserve">
<style type="text/css">
	.st0{display:none;}
	.st1{display:inline;fill:#FFFFFF;}
	.st2{display:inline;fill:#838585;}
	.st3{fill:url(#SVGID_1_);}
	.st4{fill:url(#SVGID_2_);}
	.st5{fill:#4DDFE9;}
	.st6{fill:url(#SVGID_3_);}
	.st7{fill:#4ABDE0;}
	.st8{opacity:0.47;fill:#173056;}
</style>
<g id="BG" class="st0">
	<rect y="0" class="st1" width="841.89" height="566.93"/>
</g>
<g id="graphics">
	<g class="st0">
		<path class="st2" d="M324.91,403.96v37.16h-12.83v-37.16H324.91z"/>
		<path class="st2" d="M350.82,429.82l-8.99-8.04v19.34h-12.83v-37.16h29.28c2.56,0,4.74,0.18,6.55,0.55
			c1.8,0.37,3.28,1.01,4.44,1.92c1.16,0.91,2,2.13,2.52,3.65c0.52,1.52,0.79,3.44,0.79,5.76c0,4.8-0.92,8.33-2.76,10.59
			c-1.84,2.26-4.95,3.39-9.33,3.39H350.82z M341.84,420.2h15.35c0.91,0,1.72-0.25,2.42-0.76c0.7-0.51,1.05-1.24,1.05-2.18
			c-0.07-0.7-0.44-1.31-1.1-1.84c-0.67-0.52-1.4-0.79-2.21-0.79h-15.51V420.2z"/>
		<path class="st2" d="M376.64,435.18v-3.52h28.17c0.95,0,1.81-0.17,2.6-0.5c0.79-0.33,1.14-0.99,1.18-1.81
			c0.05-0.82-0.27-1.43-1.37-1.79c-1.09-0.36-18.9-0.69-22.02-0.84c-3.13-0.15-6.2-1.44-7.78-3.68c-0.6-0.81-1.03-1.81-1.31-3.02
			c-0.28-1.21-0.42-2.6-0.42-4.18c0-3.96,0.78-6.93,2.34-8.91c1.56-1.98,4.13-2.97,7.7-2.97c0,0,23.19,0,26.81,0
			c3.62,0,7,2.09,7.1,5.68l0.16,3.78h-28.12c-3.13,0-3.52,1.38-3.52,2.26c0,0.81,0.33,1.36,1,1.66c0.67,0.3,1.39,0.38,2.68,0.45
			c1.29,0.07,18.53,0.22,20.08,0.26c1.55,0.04,3.33,0.53,4.63,1.18c1.3,0.65,2.29,1.59,3,2.81l0.05,0.05
			c1.02,2.03,1.53,4.47,1.53,7.31c0,4.1-0.91,7.08-2.73,8.94c-1.82,1.86-4.78,2.79-8.88,2.79h-25.55
			C379.96,441.12,376.64,439.68,376.64,435.18z"/>
		<path class="st2" d="M436.87,403.96v24.5c0,0.42,0.22,0.76,0.66,1.03c0.44,0.26,1.11,0.39,2.02,0.39h15.72
			c1.02,0,1.74-0.13,2.18-0.39c0.44-0.26,0.66-0.6,0.66-1.03v-24.5h12.62v26.02c0,1.68-0.19,3.14-0.58,4.36
			c-0.39,1.23-1.12,2.38-2.21,3.47c-0.53,0.49-1.01,0.91-1.45,1.26c-0.44,0.35-0.85,0.63-1.23,0.84c-0.77,0.46-1.81,0.79-3.1,1
			c-0.53,0.14-1.25,0.24-2.18,0.32c-0.93,0.07-1.88,0.12-2.86,0.16c-1.05,0-2.42,0.01-4.1,0.03c-1.68,0.02-3.52,0.03-5.52,0.03
			c-2.14,0-4-0.01-5.6-0.03c-1.6-0.02-2.92-0.03-3.97-0.03c-2.28-0.07-4-0.23-5.15-0.47h0.05c-0.63-0.1-1.19-0.24-1.68-0.39
			c-0.49-0.16-0.95-0.35-1.39-0.58c-0.44-0.23-0.88-0.52-1.32-0.87c-0.44-0.35-0.92-0.77-1.44-1.26c-1.12-1.09-1.87-2.23-2.24-3.44
			c-0.37-1.21-0.55-2.67-0.55-4.39v-26.02H436.87z"/>
		<path class="st2" d="M517.77,441.12v-23.18l-11.56,23.18h-8.52l-11.72-22.87v22.87h-12.14v-37.16h18.76l9.25,19.66
			c1.58-3.26,3.15-6.55,4.73-9.88c1.58-3.33,3.1-6.59,4.58-9.78h18.66v37.16H517.77z"/>
	</g>
	<g>
		<linearGradient id="SVGID_1_" gradientUnits="userSpaceOnUse" x1="310.6763" y1="209.4191" x2="506.0488" y2="209.4191">
			<stop  offset="0" style="stop-color:#81E9E2"/>
			<stop  offset="3.094059e-03" style="stop-color:#80E9E2"/>
			<stop  offset="0.2055" style="stop-color:#5BCED5"/>
			<stop  offset="0.407" style="stop-color:#3DB9CA"/>
			<stop  offset="0.6053" style="stop-color:#28AAC3"/>
			<stop  offset="0.7988" style="stop-color:#1BA1BE"/>
			<stop  offset="0.9818" style="stop-color:#179EBD"/>
		</linearGradient>
		<path class="st3" d="M333.56,268.58c9.19,1.95,22.38,0.07,25.25-0.79c34.39-12.9,61.57-31.07,83.19-46.95
			c17.88-13.14,33.33-24.49,50.05-26.97c2.46-0.36,4.85-0.55,7.12-0.55c2.47,0,4.75,0.21,6.88,0.6
			c-19.97-11.53-68.58-39.6-68.58-39.6c-5.58-3.22-11.95-4.92-18.43-4.92c-6.48,0-12.85,1.7-18.43,4.92l-71.3,41.17
			c-11.37,6.56-18.43,18.8-18.43,31.92C310.87,243.5,307.04,262.96,333.56,268.58z"/>
		<linearGradient id="SVGID_2_" gradientUnits="userSpaceOnUse" x1="292.0757" y1="270.8262" x2="549.8138" y2="270.8262">
			<stop  offset="0" style="stop-color:#81E9E2"/>
			<stop  offset="3.094059e-03" style="stop-color:#80E9E2"/>
			<stop  offset="0.2055" style="stop-color:#5BCED5"/>
			<stop  offset="0.407" style="stop-color:#3DB9CA"/>
			<stop  offset="0.6053" style="stop-color:#28AAC3"/>
			<stop  offset="0.7988" style="stop-color:#1BA1BE"/>
			<stop  offset="0.9818" style="stop-color:#179EBD"/>
		</linearGradient>
		<path class="st4" d="M310.87,238.46c0,4.1-3.14,24.65,22.69,30.12c49.46,10.48,200.01-78.26,215.06-14.45
			c7.33,31.06-21.42,56.66-21.42,56.66s4.28-27.91-46.29-24.76c-35.91,2.37-123,39.94-170.04,11.23
			C281.87,279.56,290.09,246.83,310.87,238.46z"/>
		<path class="st5" d="M527.2,228.3c-27.33-6.63-72.19,7.6-109.93,19.22c-15.77,4.86-13.87,4.12-15.49,5.01
			c43.56-23.75,67.75-54.92,97.39-54.92C517.57,197.6,527.2,211.8,527.2,228.3z"/>
		<linearGradient id="SVGID_3_" gradientUnits="userSpaceOnUse" x1="312.0493" y1="336.7737" x2="527.2021" y2="336.7737">
			<stop  offset="0" style="stop-color:#81E9E2"/>
			<stop  offset="3.094059e-03" style="stop-color:#80E9E2"/>
			<stop  offset="0.2055" style="stop-color:#5BCED5"/>
			<stop  offset="0.407" style="stop-color:#3DB9CA"/>
			<stop  offset="0.6053" style="stop-color:#28AAC3"/>
			<stop  offset="0.7988" style="stop-color:#1BA1BE"/>
			<stop  offset="0.9818" style="stop-color:#179EBD"/>
		</linearGradient>
		<path class="st6" d="M480.91,286.03c-3.71,0.25-7.98,0.87-12.69,1.76c-13.24,3.55-28.79,13.07-43.67,22.42
			c-17.51,10.99-37.37,23.45-58.04,28.68c-23.37,5.92-45.02,1.17-54.46-19.96c2.45,9.46,8.6,17.75,17.25,22.75l71.3,41.17
			c5.58,3.22,11.95,4.92,18.43,4.92c6.48,0,12.86-1.7,18.43-4.92l71.3-41.17c11.37-6.56,18.43-18.8,18.43-31.92v-2.28
			C526.48,300.17,520.53,283.57,480.91,286.03z"/>
		<path class="st7" d="M348.81,337c-25.66,0-35.81-19.63-35.81-32.8v-0.98c11.79,6.04,26.1,9.07,43.7,9.07
			c24.66,0,51.85-6,75.12-11.64C408.87,314.71,377.49,337,348.81,337z"/>
		<path class="st8" d="M480.91,286.03c-41.16,2.72-79.91,51.54-127.66,55.07c35.75,4.27,66.29-20.02,107.71-30.31
			c49.07-12.18,62.36,2.85,64.96,8.55C533.31,292.05,509.15,284.28,480.91,286.03z"/>
		<path class="st8" d="M357.47,268.18c38.05-11.02,88.38-51.38,106.45-62.67c-52.52,23.78-60.49,34.32-111.65,42.57
			c-43.08,6.95-41.08-24.71-40.95-26.29c-0.59,3.76-0.46,3.97-0.46,23.69C312.69,267.76,335.28,271.61,357.47,268.18z"/>
	</g>
</g>
</svg>
